<svg viewBox="-201.244 -64.0944 597.871 353.767" width="3107.04" height="1838.48" style="background-color:#FFFFFFFF" xmlns="http://www.w3.org/2000/svg" xmlns:xlink="http://www.w3.org/1999/xlink">

<g>
<line x1='-201.312' y1='-62.5755' x2='396.627' y2='-62.5755' stroke='rgba(0,0,0,0.160784)' stroke-width='0.6' stroke-dasharray='0.05 4.4235' stroke-linecap='round' />
<line x1='-201.312' y1='-58.102' x2='396.627' y2='-58.102' stroke='rgba(0,0,0,0.160784)' stroke-width='0.6' stroke-dasharray='0.05 4.4235' stroke-linecap='round' />
<line x1='-201.312' y1='-53.6285' x2='396.627' y2='-53.6285' stroke='rgba(0,0,0,0.160784)' stroke-width='0.6' stroke-dasharray='0.05 4.4235' stroke-linecap='round' />
<line x1='-201.312' y1='-49.155' x2='396.627' y2='-49.155' stroke='rgba(0,0,0,0.160784)' stroke-width='0.6' stroke-dasharray='0.05 4.4235' stroke-linecap='round' />
<line x1='-201.312' y1='-44.6815' x2='396.627' y2='-44.6815' stroke='rgba(0,0,0,0.160784)' stroke-width='0.6' stroke-dasharray='0.05 4.4235' stroke-linecap='round' />
<line x1='-201.312' y1='-40.208' x2='396.627' y2='-40.208' stroke='rgba(0,0,0,0.160784)' stroke-width='0.6' stroke-dasharray='0.05 4.4235' stroke-linecap='round' />
<line x1='-201.312' y1='-35.7345' x2='396.627' y2='-35.7345' stroke='rgba(0,0,0,0.160784)' stroke-width='0.6' stroke-dasharray='0.05 4.4235' stroke-linecap='round' />
<line x1='-201.312' y1='-31.261' x2='396.627' y2='-31.261' stroke='rgba(0,0,0,0.160784)' stroke-width='0.6' stroke-dasharray='0.05 4.4235' stroke-linecap='round' />
<line x1='-201.312' y1='-26.7875' x2='396.627' y2='-26.7875' stroke='rgba(0,0,0,0.160784)' stroke-width='0.6' stroke-dasharray='0.05 4.4235' stroke-linecap='round' />
<line x1='-201.312' y1='-22.314' x2='396.627' y2='-22.314' stroke='rgba(0,0,0,0.160784)' stroke-width='0.6' stroke-dasharray='0.05 4.4235' stroke-linecap='round' />
<line x1='-201.312' y1='-17.8405' x2='396.627' y2='-17.8405' stroke='rgba(0,0,0,0.160784)' stroke-width='0.6' stroke-dasharray='0.05 4.4235' stroke-linecap='round' />
<line x1='-201.312' y1='-13.367' x2='396.627' y2='-13.367' stroke='rgba(0,0,0,0.160784)' stroke-width='0.6' stroke-dasharray='0.05 4.4235' stroke-linecap='round' />
<line x1='-201.312' y1='-8.89351' x2='396.627' y2='-8.89351' stroke='rgba(0,0,0,0.160784)' stroke-width='0.6' stroke-dasharray='0.05 4.4235' stroke-linecap='round' />
<line x1='-201.312' y1='-4.42001' x2='396.627' y2='-4.42001' stroke='rgba(0,0,0,0.160784)' stroke-width='0.6' stroke-dasharray='0.05 4.4235' stroke-linecap='round' />
<line x1='-201.312' y1='0.0534863' x2='396.627' y2='0.0534863' stroke='rgba(0,0,0,0.160784)' stroke-width='0.6' stroke-dasharray='0.05 4.4235' stroke-linecap='round' />
<line x1='-201.312' y1='4.52699' x2='396.627' y2='4.52699' stroke='rgba(0,0,0,0.160784)' stroke-width='0.6' stroke-dasharray='0.05 4.4235' stroke-linecap='round' />
<line x1='-201.312' y1='9.00049' x2='396.627' y2='9.00049' stroke='rgba(0,0,0,0.160784)' stroke-width='0.6' stroke-dasharray='0.05 4.4235' stroke-linecap='round' />
<line x1='-201.312' y1='13.474' x2='396.627' y2='13.474' stroke='rgba(0,0,0,0.160784)' stroke-width='0.6' stroke-dasharray='0.05 4.4235' stroke-linecap='round' />
<line x1='-201.312' y1='17.9475' x2='396.627' y2='17.9475' stroke='rgba(0,0,0,0.160784)' stroke-width='0.6' stroke-dasharray='0.05 4.4235' stroke-linecap='round' />
<line x1='-201.312' y1='22.421' x2='396.627' y2='22.421' stroke='rgba(0,0,0,0.160784)' stroke-width='0.6' stroke-dasharray='0.05 4.4235' stroke-linecap='round' />
<line x1='-201.312' y1='26.8945' x2='396.627' y2='26.8945' stroke='rgba(0,0,0,0.160784)' stroke-width='0.6' stroke-dasharray='0.05 4.4235' stroke-linecap='round' />
<line x1='-201.312' y1='31.368' x2='396.627' y2='31.368' stroke='rgba(0,0,0,0.160784)' stroke-width='0.6' stroke-dasharray='0.05 4.4235' stroke-linecap='round' />
<line x1='-201.312' y1='35.8415' x2='396.627' y2='35.8415' stroke='rgba(0,0,0,0.160784)' stroke-width='0.6' stroke-dasharray='0.05 4.4235' stroke-linecap='round' />
<line x1='-201.312' y1='40.315' x2='396.627' y2='40.315' stroke='rgba(0,0,0,0.160784)' stroke-width='0.6' stroke-dasharray='0.05 4.4235' stroke-linecap='round' />
<line x1='-201.312' y1='44.7885' x2='396.627' y2='44.7885' stroke='rgba(0,0,0,0.160784)' stroke-width='0.6' stroke-dasharray='0.05 4.4235' stroke-linecap='round' />
<line x1='-201.312' y1='49.262' x2='396.627' y2='49.262' stroke='rgba(0,0,0,0.160784)' stroke-width='0.6' stroke-dasharray='0.05 4.4235' stroke-linecap='round' />
<line x1='-201.312' y1='53.7355' x2='396.627' y2='53.7355' stroke='rgba(0,0,0,0.160784)' stroke-width='0.6' stroke-dasharray='0.05 4.4235' stroke-linecap='round' />
<line x1='-201.312' y1='58.209' x2='396.627' y2='58.209' stroke='rgba(0,0,0,0.160784)' stroke-width='0.6' stroke-dasharray='0.05 4.4235' stroke-linecap='round' />
<line x1='-201.312' y1='62.6825' x2='396.627' y2='62.6825' stroke='rgba(0,0,0,0.160784)' stroke-width='0.6' stroke-dasharray='0.05 4.4235' stroke-linecap='round' />
<line x1='-201.312' y1='67.156' x2='396.627' y2='67.156' stroke='rgba(0,0,0,0.160784)' stroke-width='0.6' stroke-dasharray='0.05 4.4235' stroke-linecap='round' />
<line x1='-201.312' y1='71.6295' x2='396.627' y2='71.6295' stroke='rgba(0,0,0,0.160784)' stroke-width='0.6' stroke-dasharray='0.05 4.4235' stroke-linecap='round' />
<line x1='-201.312' y1='76.103' x2='396.627' y2='76.103' stroke='rgba(0,0,0,0.160784)' stroke-width='0.6' stroke-dasharray='0.05 4.4235' stroke-linecap='round' />
<line x1='-201.312' y1='80.5765' x2='396.627' y2='80.5765' stroke='rgba(0,0,0,0.160784)' stroke-width='0.6' stroke-dasharray='0.05 4.4235' stroke-linecap='round' />
<line x1='-201.312' y1='85.05' x2='396.627' y2='85.05' stroke='rgba(0,0,0,0.160784)' stroke-width='0.6' stroke-dasharray='0.05 4.4235' stroke-linecap='round' />
<line x1='-201.312' y1='89.5235' x2='396.627' y2='89.5235' stroke='rgba(0,0,0,0.160784)' stroke-width='0.6' stroke-dasharray='0.05 4.4235' stroke-linecap='round' />
<line x1='-201.312' y1='93.997' x2='396.627' y2='93.997' stroke='rgba(0,0,0,0.160784)' stroke-width='0.6' stroke-dasharray='0.05 4.4235' stroke-linecap='round' />
<line x1='-201.312' y1='98.4705' x2='396.627' y2='98.4705' stroke='rgba(0,0,0,0.160784)' stroke-width='0.6' stroke-dasharray='0.05 4.4235' stroke-linecap='round' />
<line x1='-201.312' y1='102.944' x2='396.627' y2='102.944' stroke='rgba(0,0,0,0.160784)' stroke-width='0.6' stroke-dasharray='0.05 4.4235' stroke-linecap='round' />
<line x1='-201.312' y1='107.417' x2='396.627' y2='107.417' stroke='rgba(0,0,0,0.160784)' stroke-width='0.6' stroke-dasharray='0.05 4.4235' stroke-linecap='round' />
<line x1='-201.312' y1='111.891' x2='396.627' y2='111.891' stroke='rgba(0,0,0,0.160784)' stroke-width='0.6' stroke-dasharray='0.05 4.4235' stroke-linecap='round' />
<line x1='-201.312' y1='116.364' x2='396.627' y2='116.364' stroke='rgba(0,0,0,0.160784)' stroke-width='0.6' stroke-dasharray='0.05 4.4235' stroke-linecap='round' />
<line x1='-201.312' y1='120.838' x2='396.627' y2='120.838' stroke='rgba(0,0,0,0.160784)' stroke-width='0.6' stroke-dasharray='0.05 4.4235' stroke-linecap='round' />
<line x1='-201.312' y1='125.311' x2='396.627' y2='125.311' stroke='rgba(0,0,0,0.160784)' stroke-width='0.6' stroke-dasharray='0.05 4.4235' stroke-linecap='round' />
<line x1='-201.312' y1='129.785' x2='396.627' y2='129.785' stroke='rgba(0,0,0,0.160784)' stroke-width='0.6' stroke-dasharray='0.05 4.4235' stroke-linecap='round' />
<line x1='-201.312' y1='134.258' x2='396.627' y2='134.258' stroke='rgba(0,0,0,0.160784)' stroke-width='0.6' stroke-dasharray='0.05 4.4235' stroke-linecap='round' />
<line x1='-201.312' y1='138.732' x2='396.627' y2='138.732' stroke='rgba(0,0,0,0.160784)' stroke-width='0.6' stroke-dasharray='0.05 4.4235' stroke-linecap='round' />
<line x1='-201.312' y1='143.205' x2='396.627' y2='143.205' stroke='rgba(0,0,0,0.160784)' stroke-width='0.6' stroke-dasharray='0.05 4.4235' stroke-linecap='round' />
<line x1='-201.312' y1='147.679' x2='396.627' y2='147.679' stroke='rgba(0,0,0,0.160784)' stroke-width='0.6' stroke-dasharray='0.05 4.4235' stroke-linecap='round' />
<line x1='-201.312' y1='152.152' x2='396.627' y2='152.152' stroke='rgba(0,0,0,0.160784)' stroke-width='0.6' stroke-dasharray='0.05 4.4235' stroke-linecap='round' />
<line x1='-201.312' y1='156.626' x2='396.627' y2='156.626' stroke='rgba(0,0,0,0.160784)' stroke-width='0.6' stroke-dasharray='0.05 4.4235' stroke-linecap='round' />
<line x1='-201.312' y1='161.099' x2='396.627' y2='161.099' stroke='rgba(0,0,0,0.160784)' stroke-width='0.6' stroke-dasharray='0.05 4.4235' stroke-linecap='round' />
<line x1='-201.312' y1='165.573' x2='396.627' y2='165.573' stroke='rgba(0,0,0,0.160784)' stroke-width='0.6' stroke-dasharray='0.05 4.4235' stroke-linecap='round' />
<line x1='-201.312' y1='170.046' x2='396.627' y2='170.046' stroke='rgba(0,0,0,0.160784)' stroke-width='0.6' stroke-dasharray='0.05 4.4235' stroke-linecap='round' />
<line x1='-201.312' y1='174.52' x2='396.627' y2='174.52' stroke='rgba(0,0,0,0.160784)' stroke-width='0.6' stroke-dasharray='0.05 4.4235' stroke-linecap='round' />
<line x1='-201.312' y1='178.993' x2='396.627' y2='178.993' stroke='rgba(0,0,0,0.160784)' stroke-width='0.6' stroke-dasharray='0.05 4.4235' stroke-linecap='round' />
<line x1='-201.312' y1='183.467' x2='396.627' y2='183.467' stroke='rgba(0,0,0,0.160784)' stroke-width='0.6' stroke-dasharray='0.05 4.4235' stroke-linecap='round' />
<line x1='-201.312' y1='187.94' x2='396.627' y2='187.94' stroke='rgba(0,0,0,0.160784)' stroke-width='0.6' stroke-dasharray='0.05 4.4235' stroke-linecap='round' />
<line x1='-201.312' y1='192.414' x2='396.627' y2='192.414' stroke='rgba(0,0,0,0.160784)' stroke-width='0.6' stroke-dasharray='0.05 4.4235' stroke-linecap='round' />
<line x1='-201.312' y1='196.887' x2='396.627' y2='196.887' stroke='rgba(0,0,0,0.160784)' stroke-width='0.6' stroke-dasharray='0.05 4.4235' stroke-linecap='round' />
<line x1='-201.312' y1='201.361' x2='396.627' y2='201.361' stroke='rgba(0,0,0,0.160784)' stroke-width='0.6' stroke-dasharray='0.05 4.4235' stroke-linecap='round' />
<line x1='-201.312' y1='205.834' x2='396.627' y2='205.834' stroke='rgba(0,0,0,0.160784)' stroke-width='0.6' stroke-dasharray='0.05 4.4235' stroke-linecap='round' />
<line x1='-201.312' y1='210.308' x2='396.627' y2='210.308' stroke='rgba(0,0,0,0.160784)' stroke-width='0.6' stroke-dasharray='0.05 4.4235' stroke-linecap='round' />
<line x1='-201.312' y1='214.781' x2='396.627' y2='214.781' stroke='rgba(0,0,0,0.160784)' stroke-width='0.6' stroke-dasharray='0.05 4.4235' stroke-linecap='round' />
<line x1='-201.312' y1='219.255' x2='396.627' y2='219.255' stroke='rgba(0,0,0,0.160784)' stroke-width='0.6' stroke-dasharray='0.05 4.4235' stroke-linecap='round' />
<line x1='-201.312' y1='223.728' x2='396.627' y2='223.728' stroke='rgba(0,0,0,0.160784)' stroke-width='0.6' stroke-dasharray='0.05 4.4235' stroke-linecap='round' />
<line x1='-201.312' y1='228.202' x2='396.627' y2='228.202' stroke='rgba(0,0,0,0.160784)' stroke-width='0.6' stroke-dasharray='0.05 4.4235' stroke-linecap='round' />
<line x1='-201.312' y1='232.675' x2='396.627' y2='232.675' stroke='rgba(0,0,0,0.160784)' stroke-width='0.6' stroke-dasharray='0.05 4.4235' stroke-linecap='round' />
<line x1='-201.312' y1='237.149' x2='396.627' y2='237.149' stroke='rgba(0,0,0,0.160784)' stroke-width='0.6' stroke-dasharray='0.05 4.4235' stroke-linecap='round' />
<line x1='-201.312' y1='241.622' x2='396.627' y2='241.622' stroke='rgba(0,0,0,0.160784)' stroke-width='0.6' stroke-dasharray='0.05 4.4235' stroke-linecap='round' />
<line x1='-201.312' y1='246.096' x2='396.627' y2='246.096' stroke='rgba(0,0,0,0.160784)' stroke-width='0.6' stroke-dasharray='0.05 4.4235' stroke-linecap='round' />
<line x1='-201.312' y1='250.569' x2='396.627' y2='250.569' stroke='rgba(0,0,0,0.160784)' stroke-width='0.6' stroke-dasharray='0.05 4.4235' stroke-linecap='round' />
<line x1='-201.312' y1='255.043' x2='396.627' y2='255.043' stroke='rgba(0,0,0,0.160784)' stroke-width='0.6' stroke-dasharray='0.05 4.4235' stroke-linecap='round' />
<line x1='-201.312' y1='259.516' x2='396.627' y2='259.516' stroke='rgba(0,0,0,0.160784)' stroke-width='0.6' stroke-dasharray='0.05 4.4235' stroke-linecap='round' />
<line x1='-201.312' y1='263.99' x2='396.627' y2='263.99' stroke='rgba(0,0,0,0.160784)' stroke-width='0.6' stroke-dasharray='0.05 4.4235' stroke-linecap='round' />
<line x1='-201.312' y1='268.463' x2='396.627' y2='268.463' stroke='rgba(0,0,0,0.160784)' stroke-width='0.6' stroke-dasharray='0.05 4.4235' stroke-linecap='round' />
<line x1='-201.312' y1='272.937' x2='396.627' y2='272.937' stroke='rgba(0,0,0,0.160784)' stroke-width='0.6' stroke-dasharray='0.05 4.4235' stroke-linecap='round' />
<line x1='-201.312' y1='277.41' x2='396.627' y2='277.41' stroke='rgba(0,0,0,0.160784)' stroke-width='0.6' stroke-dasharray='0.05 4.4235' stroke-linecap='round' />
<line x1='-201.312' y1='281.884' x2='396.627' y2='281.884' stroke='rgba(0,0,0,0.160784)' stroke-width='0.6' stroke-dasharray='0.05 4.4235' stroke-linecap='round' />
<line x1='-201.312' y1='286.357' x2='396.627' y2='286.357' stroke='rgba(0,0,0,0.160784)' stroke-width='0.6' stroke-dasharray='0.05 4.4235' stroke-linecap='round' />
</g><path d="M 78.585 15.1567 L 78.585 15.1567 L 78.6962 15.045 L 78.8365 14.9732 L 78.9922 14.9484 L 79.148 14.9728 L 79.2887 15.0441 L 79.4004 15.1553 L 79.4724 15.2956 L 79.4976 15.4513 L 79.473 15.6071 L 79.4014 15.7478 L 79.3118 15.9324 L 79.1721 16.1389 L 79.0438 16.2674 L 78.8331 16.5015 L 78.5897 16.7433 L 78.3529 16.9574 L 78.1276 17.135 L 77.926 17.2891 L 77.7543 17.4197 L 77.6043 17.5224 L 77.3991 17.6276 L 77.2755 17.6985 L 77.2118 17.7232 L 76.9815 17.7605 L 76.9489 17.7617 L 76.7184 17.7253 L 76.705 17.7203 L 76.4973 17.6144 L 76.3322 17.4496 L 76.2261 17.2421 L 76.1894 17.012 L 76.1898 17.0004 L 76.2257 16.7709 L 76.3309 16.5638 L 76.4947 16.3991 L 76.7016 16.2933 L 76.9311 16.2567 L 77.1607 16.2927 L 77.368 16.3979 L 77.5327 16.5617 L 77.6388 16.7686 L 77.6759 16.998 L 77.6799 17.0096 L 76.9346 17.0114 L 77.1631 16.3022 L 77.1769 16.3061 L 76.9483 17.0159 L 76.9465 16.27 L 76.9791 16.2694 L 76.9809 17.0149 L 76.7489 16.3061 L 76.8141 16.2859 L 76.9415 16.2265 L 77.1709 16.9274 L 76.7363 16.3315 L 76.901 16.249 L 77.0947 16.1486 L 77.3214 16.0289 L 77.5735 15.8881 L 77.8392 15.7138 L 78.1145 15.5156 L 78.3611 15.3307 L 78.7029 15.7994 L 78.2333 15.4592 L 78.43 15.2939 L 78.585 15.1567 Z" style='fill:rgba(255,255,255,1); stroke:none' />

<path d="M 131.008 19.846 L 131.008 19.846 L 131.011 19.8525 L 131.012 19.8598 L 131.011 19.8671 L 131.008 19.8737 L 131.003 19.8789 L 130.996 19.8823 L 130.989 19.8834 L 130.982 19.8823 L 130.975 19.8789 L 130.97 19.8737 L 130.01 18.6867 L 129.64 18.1187 L 129.633 18.1055 L 129.569 17.849 L 129.566 17.8331 L 129.558 17.6526 L 129.555 17.5305 L 129.558 17.5137 L 129.565 17.4573 L 129.573 17.4419 L 129.585 17.4296 L 129.601 17.4217 L 129.646 17.4049 L 129.663 17.4021 L 129.75 17.4009 L 129.866 17.4215 L 129.881 17.4238 L 129.894 17.4306 L 130.03 17.5137 L 130.181 17.6574 L 130.19 17.6664 L 130.356 17.8546 L 130.541 18.0761 L 130.736 18.3341 L 130.926 18.6222 L 130.93 18.6292 L 130.931 18.6369 L 130.93 18.6447 L 130.927 18.6517 L 130.921 18.6573 L 130.914 18.6609 L 130.906 18.6621 L 130.898 18.6609 L 130.891 18.6573 L 130.886 18.6518 L 130.688 18.3692 L 130.486 18.1162 L 130.295 17.899 L 130.124 17.7144 L 130.133 17.7234 L 129.979 17.5845 L 129.838 17.5082 L 129.866 17.5173 L 129.75 17.5064 L 129.664 17.5131 L 129.681 17.5103 L 129.635 17.5271 L 129.618 17.4744 L 129.671 17.4914 L 129.662 17.5472 L 129.61 17.5305 L 129.664 17.5303 L 129.665 17.6524 L 129.669 17.833 L 129.666 17.8171 L 129.724 18.076 L 129.717 18.0628 L 130.073 18.641 L 131.008 19.846 Z" style='fill:rgba(255,255,255,1); stroke:none' />

<path d="M 66.6606 7.24395 L 66.6606 7.24395 L 66.6532 7.24017 L 66.6473 7.23429 L 66.6435 7.22688 L 66.6422 7.21867 L 66.6435 7.21045 L 66.6473 7.20304 L 66.6531 7.19714 L 66.6605 7.19335 L 66.6687 7.19204 L 66.677 7.19333 L 66.8546 7.25325 L 67.0185 7.30402 L 67.1549 7.3374 L 67.265 7.35166 L 67.2507 7.34943 L 67.3456 7.34657 L 67.3307 7.34895 L 67.4228 7.32907 L 67.5216 7.2902 L 67.6315 7.23446 L 67.754 7.16854 L 67.8919 7.09998 L 68.0481 7.03294 L 68.2259 6.96857 L 68.4271 6.90662 L 68.6517 6.84661 L 68.896 6.79026 L 69.1606 6.73754 L 69.1778 6.73479 L 69.4643 6.68476 L 69.7736 6.63685 L 70.1033 6.59059 L 70.4457 6.54491 L 70.7906 6.5005 L 71.1363 6.45799 L 71.4867 6.41578 L 71.8448 6.37129 L 72.2123 6.32209 L 72.5894 6.26522 L 72.9733 6.19983 L 72.956 6.20259 L 73.3507 6.12914 L 73.7606 6.04898 L 74.1885 5.96386 L 74.6322 5.87713 L 75.0821 5.79224 L 75.5248 5.71134 L 75.9599 5.63434 L 75.9772 5.63159 L 76.4127 5.55747 L 76.857 5.48534 L 77.3152 5.41446 L 77.7845 5.34604 L 78.2569 5.28152 L 78.7326 5.22022 L 79.2146 5.1598 L 79.7038 5.0994 L 80.1984 5.0391 L 80.6911 4.97973 L 81.1737 4.92464 L 81.6502 4.8753 L 82.1283 4.83143 L 82.6131 4.79152 L 83.1039 4.75471 L 83.5925 4.72163 L 84.0658 4.69363 L 84.5243 4.6711 L 84.9768 4.65354 L 85.432 4.63942 L 85.894 4.62732 L 86.358 4.6169 L 86.8119 4.60895 L 87.2532 4.60444 L 87.6843 4.60264 L 88.1072 4.60222 L 88.5227 4.60227 L 88.928 4.60251 L 89.318 4.60332 L 89.6986 4.60559 L 90.0818 4.61029 L 90.4752 4.61722 L 90.8798 4.62398 L 91.2897 4.62837 L 91.6966 4.63034 L 92.1015 4.63079 L 92.5103 4.63061 L 92.927 4.63033 L 93.3522 4.63021 L 93.7825 4.63032 L 94.2119 4.6306 L 94.6418 4.63085 L 95.0758 4.63055 L 95.5144 4.62882 L 95.9539 4.62462 L 96.3868 4.61769 L 96.8034 4.6096 L 97.2051 4.60199 L 97.5997 4.59477 L 97.9959 4.58765 L 98.3981 4.57979 L 98.8033 4.57144 L 99.2025 4.56264 L 99.5945 4.55171 L 99.9835 4.53749 L 100.373 4.51991 L 100.763 4.4999 L 101.149 4.47745 L 101.521 4.45317 L 101.886 4.42768 L 102.256 4.4014 L 102.639 4.37428 L 103.036 4.34595 L 103.441 4.31693 L 103.843 4.28879 L 104.24 4.26168 L 104.633 4.23494 L 105.025 4.2078 L 105.415 4.17978 L 105.798 4.15193 L 106.166 4.12674 L 106.525 4.1051 L 106.881 4.08637 L 107.24 4.07043 L 107.6 4.05696 L 107.957 4.04616 L 108.298 4.03873 L 108.626 4.03503 L 108.944 4.03388 L 109.258 4.03339 L 109.57 4.03177 L 109.882 4.02762 L 110.192 4.0209 L 110.492 4.01374 L 110.785 4.00793 L 111.078 4.00323 L 111.376 3.99923 L 111.68 3.99669 L 111.985 3.99556 L 112.281 3.99525 L 112.567 3.99522 L 112.847 3.99515 L 113.122 3.99504 L 113.394 3.99516 L 113.66 3.99618 L 113.911 3.99896 L 114.148 4.00406 L 114.376 4.01126 L 114.602 4.02103 L 114.83 4.03288 L 115.059 4.04574 L 115.283 4.05882 L 115.5 4.07148 L 115.717 4.08295 L 115.935 4.09275 L 116.156 4.10124 L 116.378 4.10963 L 116.593 4.11776 L 116.803 4.12498 L 117.009 4.13194 L 117.216 4.13915 L 117.425 4.14741 L 117.634 4.15621 L 117.836 4.16478 L 118.033 4.17349 L 118.228 4.18181 L 118.426 4.18895 L 118.627 4.19472 L 118.828 4.19821 L 119.025 4.19975 L 119.217 4.20029 L 119.407 4.2006 L 119.599 4.20098 L 119.792 4.20105 L 119.983 4.19959 L 120.168 4.19464 L 120.346 4.18434 L 120.519 4.16831 L 120.691 4.14709 L 120.862 4.1227 L 121.033 4.09734 L 121.197 4.07307 L 121.356 4.05157 L 121.515 4.03377 L 121.677 4.01878 L 121.844 4.00548 L 122.015 3.99324 L 122.187 3.98245 L 122.361 3.97442 L 122.541 3.96996 L 122.729 3.96816 L 122.926 3.96766 L 123.132 3.96764 L 123.34 3.9681 L 123.551 3.9699 L 123.765 3.97446 L 123.984 3.98278 L 124.209 3.99409 L 124.439 4.00695 L 124.669 4.02042 L 124.896 4.03389 L 125.125 4.04661 L 125.358 4.05782 L 125.597 4.06659 L 125.841 4.07249 L 126.083 4.07694 L 126.322 4.08146 L 126.56 4.0863 L 126.801 4.09211 L 127.048 4.09951 L 127.3 4.11003 L 127.554 4.12438 L 127.813 4.14232 L 128.08 4.16323 L 128.36 4.18754 L 128.655 4.21505 L 128.961 4.24424 L 129.267 4.2725 L 129.571 4.2987 L 129.873 4.3225 L 130.174 4.34425 L 130.476 4.36504 L 130.774 4.38398 L 131.063 4.39903 L 131.345 4.40941 L 131.63 4.41546 L 131.922 4.41926 L 132.223 4.42264 L 132.532 4.42618 L 132.842 4.43139 L 133.155 4.43984 L 133.475 4.45145 L 133.805 4.46548 L 134.146 4.48147 L 134.491 4.49853 L 134.832 4.51459 L 135.169 4.52873 L 135.506 4.54045 L 135.848 4.54882 L 136.193 4.55351 L 136.537 4.5557 L 136.869 4.55674 L 137.185 4.55696 L 137.488 4.55514 L 137.781 4.54851 L 138.064 4.53387 L 138.335 4.51003 L 138.585 4.47907 L 138.817 4.44515 L 139.036 4.41155 L 139.249 4.37952 L 139.462 4.35047 L 139.679 4.32503 L 139.9 4.30344 L 140.127 4.286 L 140.364 4.27197 L 140.615 4.26107 L 140.88 4.25358 L 141.153 4.24975 L 141.427 4.24847 L 141.7 4.24831 L 141.974 4.24825 L 142.25 4.24781 L 142.527 4.24712 L 142.8 4.24718 L 143.061 4.25003 L 143.312 4.25863 L 143.557 4.27517 L 143.8 4.29874 L 144.045 4.32719 L 144.288 4.35846 L 144.526 4.3905 L 144.759 4.42208 L 144.994 4.45193 L 145.232 4.48013 L 145.473 4.50713 L 145.712 4.53212 L 145.942 4.55346 L 146.164 4.57221 L 146.38 4.58959 L 146.594 4.6048 L 146.806 4.61708 L 147.014 4.62552 L 147.214 4.62982 L 147.407 4.6312 L 147.6 4.63117 L 147.797 4.63082 L 148.002 4.63065 L 148.215 4.6308 L 148.432 4.63101 L 148.653 4.63068 L 148.879 4.62871 L 149.109 4.62385 L 149.343 4.61567 L 149.576 4.60602 L 149.801 4.59782 L 150.013 4.59294 L 150.216 4.59096 L 150.413 4.59063 L 150.603 4.59094 L 150.786 4.59133 L 150.955 4.59159 L 151.113 4.59171 L 151.263 4.59174 L 151.408 4.59174 L 151.552 4.59174 L 151.692 4.59174 L 151.825 4.59172 L 151.953 4.59166 L 152.078 4.59152 L 152.203 4.59127 L 152.329 4.59099 L 152.454 4.59096 L 152.574 4.59179 L 152.688 4.59437 L 152.798 4.59939 L 152.905 4.60704 L 153.01 4.61838 L 153.027 4.62109 L 153.128 4.63641 L 153.218 4.65531 L 153.299 4.67629 L 153.372 4.69848 L 153.44 4.72302 L 153.505 4.75026 L 153.566 4.77951 L 153.582 4.78743 L 153.638 4.81726 L 153.692 4.84738 L 153.745 4.87767 L 153.802 4.90733 L 153.786 4.89941 L 153.847 4.92879 L 153.911 4.95797 L 153.974 4.98598 L 154.035 5.0132 L 154.095 5.04075 L 154.155 5.0696 L 154.216 5.09944 L 154.278 5.12858 L 154.339 5.15695 L 154.4 5.18625 L 154.466 5.21876 L 154.478 5.22525 L 154.548 5.26361 L 154.623 5.31304 L 154.703 5.37729 L 154.789 5.45907 L 154.796 5.46653 L 154.887 5.56646 L 154.984 5.6801 L 154.988 5.6872 L 154.989 5.69508 L 154.988 5.70297 L 154.984 5.71009 L 154.979 5.71574 L 154.971 5.71939 L 154.964 5.72066 L 154.956 5.71942 L 154.949 5.71579 L 154.943 5.71015 L 154.839 5.60154 L 154.741 5.5064 L 154.749 5.51389 L 154.659 5.43806 L 154.575 5.37899 L 154.497 5.33399 L 154.425 5.29944 L 154.437 5.30594 L 154.371 5.27736 L 154.308 5.25163 L 154.246 5.22648 L 154.184 5.20021 L 154.122 5.17275 L 154.061 5.14561 L 154.001 5.11912 L 153.94 5.09239 L 153.876 5.06453 L 153.813 5.03534 L 153.752 5.00589 L 153.736 4.99794 L 153.68 4.96824 L 153.626 4.93793 L 153.573 4.9078 L 153.516 4.87796 L 153.549 4.83272 L 153.532 4.8859 L 153.47 4.85666 L 153.406 4.82942 L 153.338 4.80488 L 153.264 4.78269 L 153.184 4.76171 L 153.093 4.74281 L 152.993 4.72749 L 153.01 4.73022 L 152.905 4.71888 L 152.798 4.71123 L 152.688 4.70621 L 152.574 4.70363 L 152.454 4.7028 L 152.329 4.70283 L 152.203 4.70311 L 152.078 4.70336 L 151.953 4.7035 L 151.825 4.70356 L 151.692 4.70357 L 151.552 4.70358 L 151.409 4.70358 L 151.263 4.70358 L 151.113 4.70355 L 150.955 4.70342 L 150.786 4.70316 L 150.604 4.70278 L 150.413 4.70247 L 150.217 4.7028 L 150.013 4.70478 L 149.801 4.70966 L 149.577 4.71786 L 149.343 4.7275 L 149.109 4.73569 L 148.879 4.74055 L 148.653 4.74251 L 148.433 4.74285 L 148.216 4.74264 L 148.002 4.74249 L 147.797 4.74265 L 147.6 4.74301 L 147.407 4.74303 L 147.214 4.74166 L 147.015 4.73736 L 146.806 4.72891 L 146.594 4.71664 L 146.38 4.70143 L 146.164 4.68405 L 145.943 4.6653 L 145.712 4.64396 L 145.473 4.61897 L 145.232 4.59196 L 144.994 4.56377 L 144.76 4.53392 L 144.526 4.50233 L 144.289 4.4703 L 144.045 4.43903 L 143.8 4.41058 L 143.557 4.38701 L 143.312 4.37046 L 143.061 4.36187 L 142.8 4.35902 L 142.527 4.35896 L 142.25 4.35964 L 141.974 4.36009 L 141.7 4.36015 L 141.427 4.36031 L 141.153 4.36159 L 140.88 4.36542 L 140.615 4.3729 L 140.364 4.38381 L 140.127 4.39783 L 139.9 4.41528 L 139.68 4.43686 L 139.463 4.46231 L 139.249 4.49135 L 139.036 4.52339 L 138.817 4.55699 L 138.585 4.59091 L 138.335 4.62187 L 138.064 4.6457 L 137.781 4.66035 L 137.489 4.66698 L 137.186 4.6688 L 136.869 4.66858 L 136.537 4.66754 L 136.193 4.66535 L 135.848 4.66066 L 135.506 4.65228 L 135.169 4.64057 L 134.832 4.62643 L 134.491 4.61037 L 134.146 4.59331 L 133.806 4.57732 L 133.475 4.56329 L 133.155 4.55167 L 132.842 4.54323 L 132.532 4.53801 L 132.224 4.53447 L 131.922 4.5311 L 131.63 4.5273 L 131.345 4.52124 L 131.063 4.51087 L 130.774 4.49581 L 130.476 4.47688 L 130.175 4.45609 L 129.873 4.43433 L 129.571 4.41054 L 129.268 4.38434 L 128.962 4.35607 L 128.656 4.32689 L 128.36 4.29937 L 128.08 4.27507 L 127.813 4.25416 L 127.554 4.23622 L 127.3 4.22187 L 127.048 4.21135 L 126.802 4.20395 L 126.56 4.19814 L 126.322 4.1933 L 126.083 4.18878 L 125.841 4.18432 L 125.597 4.17843 L 125.358 4.16966 L 125.125 4.15845 L 124.896 4.14572 L 124.669 4.13226 L 124.439 4.11879 L 124.21 4.10593 L 123.984 4.09462 L 123.765 4.0863 L 123.551 4.08174 L 123.34 4.07993 L 123.132 4.07948 L 122.927 4.0795 L 122.729 4.08 L 122.541 4.0818 L 122.361 4.08626 L 122.187 4.09428 L 122.015 4.10508 L 121.844 4.11732 L 121.677 4.13062 L 121.515 4.1456 L 121.356 4.1634 L 121.197 4.1849 L 121.033 4.20917 L 120.862 4.23454 L 120.691 4.25893 L 120.519 4.28015 L 120.346 4.29618 L 120.169 4.30648 L 119.984 4.31143 L 119.792 4.31289 L 119.599 4.31282 L 119.407 4.31244 L 119.217 4.31212 L 119.025 4.31159 L 118.828 4.31005 L 118.627 4.30655 L 118.426 4.30079 L 118.228 4.29365 L 118.033 4.28533 L 117.836 4.27661 L 117.634 4.26805 L 117.425 4.25925 L 117.216 4.25099 L 117.01 4.24378 L 116.803 4.23681 L 116.593 4.22959 L 116.378 4.22147 L 116.157 4.21307 L 115.935 4.20458 L 115.717 4.19479 L 115.501 4.18332 L 115.283 4.17065 L 115.059 4.15757 L 114.831 4.14472 L 114.603 4.13287 L 114.376 4.1231 L 114.148 4.11589 L 113.911 4.1108 L 113.66 4.10802 L 113.394 4.107 L 113.122 4.10687 L 112.847 4.10699 L 112.568 4.10705 L 112.281 4.10709 L 111.985 4.1074 L 111.68 4.10852 L 111.376 4.11106 L 111.078 4.11506 L 110.785 4.11977 L 110.492 4.12558 L 110.192 4.13274 L 109.883 4.13946 L 109.57 4.1436 L 109.258 4.14523 L 108.944 4.14571 L 108.626 4.14687 L 108.299 4.15057 L 107.957 4.158 L 107.601 4.1688 L 107.24 4.18227 L 106.881 4.1982 L 106.525 4.21694 L 106.167 4.23858 L 105.798 4.26377 L 105.415 4.29162 L 105.026 4.31964 L 104.633 4.34678 L 104.24 4.37351 L 103.843 4.40063 L 103.442 4.42876 L 103.036 4.45778 L 102.639 4.48612 L 102.256 4.51324 L 101.886 4.53952 L 101.521 4.565 L 101.149 4.58929 L 100.764 4.61173 L 100.374 4.63174 L 99.9837 4.64933 L 99.5946 4.66355 L 99.2026 4.67448 L 98.8035 4.68328 L 98.3983 4.69163 L 97.9961 4.69948 L 97.5998 4.70661 L 97.2052 4.71383 L 96.8036 4.72143 L 96.387 4.72953 L 95.9541 4.73646 L 95.5146 4.74066 L 95.0759 4.74239 L 94.642 4.74269 L 94.2121 4.74244 L 93.7827 4.74216 L 93.3524 4.74205 L 92.9272 4.74217 L 92.5105 4.74245 L 92.1017 4.74263 L 91.6968 4.74217 L 91.2899 4.74021 L 90.8799 4.73582 L 90.4753 4.72906 L 90.082 4.72213 L 89.6988 4.71743 L 89.3181 4.71515 L 88.9281 4.71434 L 88.5229 4.71411 L 88.1074 4.71406 L 87.6845 4.71447 L 87.2534 4.71628 L 86.8121 4.72079 L 86.3581 4.72874 L 85.8942 4.73916 L 85.4322 4.75125 L 84.977 4.76538 L 84.5245 4.78294 L 84.0659 4.80546 L 83.5927 4.83347 L 83.1041 4.86655 L 82.6133 4.90336 L 82.1285 4.94327 L 81.6504 4.98714 L 81.1739 5.03648 L 80.6913 5.09157 L 80.1986 5.15094 L 79.704 5.21124 L 79.2148 5.27164 L 78.7328 5.33206 L 78.2571 5.39335 L 77.7847 5.45788 L 77.3154 5.5263 L 76.8572 5.59718 L 76.4129 5.66931 L 75.9774 5.74343 L 75.9946 5.74063 L 75.5596 5.81763 L 75.1168 5.89853 L 74.6669 5.98342 L 74.2232 6.07015 L 73.7953 6.15527 L 73.3854 6.23543 L 72.9907 6.30888 L 72.9735 6.31167 L 72.5896 6.37706 L 72.2125 6.43392 L 71.845 6.48312 L 71.4869 6.52761 L 71.1365 6.56982 L 70.7908 6.61234 L 70.4459 6.65674 L 70.1034 6.70243 L 69.7738 6.74868 L 69.4645 6.7966 L 69.178 6.84666 L 69.1953 6.84387 L 68.9307 6.89664 L 68.6864 6.95305 L 68.4619 7.01307 L 68.2606 7.07487 L 68.0827 7.13873 L 67.9261 7.2047 L 67.7877 7.27155 L 67.6644 7.33515 L 67.5536 7.38815 L 67.4538 7.42404 L 67.3607 7.44066 L 67.3458 7.44307 L 67.2509 7.4419 L 67.2366 7.43964 L 67.1281 7.42025 L 66.9942 7.37937 L 66.8338 7.31772 L 66.6606 7.24395 Z" style='fill:rgba(255,255,255,1); stroke:none' />

<path d="M 153.449 6.91185 L 153.449 6.91185 L 153.455 6.90593 L 153.462 6.90212 L 153.471 6.9008 L 153.479 6.90209 L 153.486 6.90588 L 153.492 6.91178 L 153.496 6.91923 L 153.498 6.92749 L 153.496 6.93576 L 153.492 6.94322 L 153.455 7.00586 L 153.415 7.06863 L 153.375 7.13095 L 153.333 7.19245 L 153.29 7.25311 L 153.244 7.31143 L 153.195 7.36518 L 153.184 7.37661 L 153.13 7.42528 L 153.069 7.46911 L 153.002 7.51041 L 152.928 7.55201 L 152.848 7.59611 L 152.765 7.6437 L 152.678 7.69635 L 152.589 7.75724 L 152.497 7.83009 L 152.402 7.91674 L 152.415 7.90435 L 152.321 8.00467 L 152.232 8.11741 L 152.148 8.24119 L 152.071 8.37554 L 151.998 8.52136 L 152.006 8.50576 L 151.936 8.66294 L 151.871 8.82833 L 151.812 8.99841 L 151.755 9.17279 L 151.699 9.35298 L 151.64 9.54005 L 151.576 9.73592 L 151.506 9.94143 L 151.432 10.1555 L 151.354 10.3806 L 151.27 10.6204 L 151.181 10.8765 L 151.087 11.1479 L 150.993 11.4297 L 150.903 11.7145 L 150.817 12.0006 L 150.736 12.2885 L 150.659 12.5779 L 150.587 12.8681 L 150.518 13.1556 L 150.454 13.4356 L 150.395 13.71 L 150.339 13.984 L 150.285 14.2632 L 150.231 14.5508 L 150.177 14.8462 L 150.123 15.1452 L 150.07 15.448 L 150.02 15.7598 L 149.973 16.0858 L 149.976 16.0686 L 149.935 16.411 L 149.902 16.7661 L 149.876 17.1262 L 149.86 17.4888 L 149.85 17.8545 L 149.846 18.2232 L 149.845 18.5943 L 149.845 18.962 L 149.846 19.3176 L 149.846 19.6619 L 149.846 20.0003 L 149.847 20.3371 L 149.849 20.6751 L 149.853 21.0132 L 149.86 21.3464 L 149.866 21.6763 L 149.87 22.009 L 149.871 22.3499 L 149.872 22.701 L 149.872 23.0581 L 149.872 23.4136 L 149.872 23.7658 L 149.872 24.1141 L 149.871 24.458 L 149.869 24.7947 L 149.864 25.1183 L 149.857 25.4206 L 149.848 25.7022 L 149.836 25.9681 L 149.821 26.2246 L 149.802 26.4761 L 149.78 26.7219 L 149.755 26.9571 L 149.728 27.1834 L 149.697 27.4059 L 149.694 27.4232 L 149.662 27.6457 L 149.631 27.8681 L 149.634 27.8508 L 149.605 28.0701 L 149.582 28.2817 L 149.565 28.4867 L 149.555 28.6884 L 149.551 28.8896 L 149.55 29.0926 L 149.55 29.296 L 149.551 29.4954 L 149.553 29.6905 L 149.562 29.8836 L 149.579 30.0777 L 149.605 30.2749 L 149.636 30.4747 L 149.669 30.6736 L 149.703 30.8724 L 149.736 31.0748 L 149.769 31.2853 L 149.798 31.5074 L 149.826 31.7413 L 149.849 31.9832 L 149.87 32.2339 L 149.889 32.496 L 149.908 32.771 L 149.926 33.059 L 149.944 33.356 L 149.961 33.6543 L 149.978 33.9525 L 149.995 34.2537 L 150.01 34.5616 L 150.023 34.877 L 150.037 35.1962 L 150.051 35.5144 L 150.068 35.8334 L 150.085 36.1573 L 150.104 36.4891 L 150.123 36.829 L 150.143 37.1721 L 150.162 37.5094 L 150.181 37.8399 L 150.198 38.1671 L 150.214 38.4944 L 150.229 38.824 L 150.241 39.1544 L 150.252 39.4819 L 150.259 39.8099 L 150.263 40.1447 L 150.265 40.4939 L 150.265 40.8615 L 150.265 41.2477 L 150.264 41.6496 L 150.265 42.0709 L 150.265 42.5184 L 150.265 42.9952 L 150.264 43.4983 L 150.26 44.0168 L 150.251 44.5358 L 150.238 45.0508 L 150.223 45.564 L 150.206 46.0799 L 150.19 46.6028 L 150.178 47.1325 L 150.169 47.6643 L 150.164 48.2039 L 150.161 48.7604 L 150.159 49.338 L 150.158 49.9347 L 150.16 50.54 L 150.169 51.1401 L 150.19 51.733 L 150.227 52.3212 L 150.277 52.9055 L 150.337 53.4834 L 150.4 54.0475 L 150.462 54.5887 L 150.522 55.1122 L 150.58 55.628 L 150.635 56.1429 L 150.688 56.6569 L 150.737 57.1644 L 150.783 57.6572 L 150.826 58.1392 L 150.868 58.6193 L 150.91 59.1049 L 150.953 59.5977 L 150.998 60.0919 L 151.042 60.5791 L 151.086 61.0602 L 151.128 61.5399 L 151.169 62.0208 L 151.209 62.5031 L 151.247 62.981 L 151.283 63.4458 L 151.315 63.8993 L 151.344 64.3478 L 151.37 64.7963 L 151.395 65.2465 L 151.42 65.6945 L 151.445 66.1332 L 151.47 66.5666 L 151.497 67.0029 L 151.525 67.4478 L 151.554 67.9025 L 151.583 68.362 L 151.61 68.8167 L 151.637 69.2661 L 151.662 69.7124 L 151.686 70.1566 L 151.707 70.5973 L 151.724 71.0302 L 151.739 71.448 L 151.75 71.8527 L 151.757 72.2512 L 151.761 72.6496 L 151.763 73.0507 L 151.763 73.4516 L 151.763 73.8453 L 151.763 74.2342 L 151.762 74.6263 L 151.76 75.0303 L 151.757 75.4515 L 151.753 75.8905 L 151.75 76.3425 L 151.748 76.8108 L 151.748 77.2998 L 151.748 77.8103 L 151.748 78.3392 L 151.748 78.8786 L 151.748 79.4175 L 151.748 79.9552 L 151.748 80.4948 L 151.748 81.0365 L 151.748 81.5771 L 151.748 82.108 L 151.748 82.6178 L 151.748 83.1111 L 151.748 83.6005 L 151.748 84.0964 L 151.747 84.6036 L 151.747 85.1186 L 151.747 85.6315 L 151.749 86.1425 L 151.754 86.6571 L 151.763 87.1786 L 151.774 87.7042 L 151.787 88.2248 L 151.799 88.7272 L 151.809 89.2094 L 151.815 89.6752 L 151.817 90.1274 L 151.817 90.5681 L 151.811 90.996 L 151.799 91.4065 L 151.778 91.8056 L 151.753 92.2031 L 151.727 92.6055 L 151.701 93.013 L 151.675 93.4199 L 151.65 93.8144 L 151.623 94.1941 L 151.593 94.5616 L 151.558 94.9199 L 151.519 95.2707 L 151.474 95.6134 L 151.472 95.6307 L 151.423 95.9626 L 151.37 96.2879 L 151.313 96.6152 L 151.251 96.9502 L 151.185 97.2954 L 151.117 97.6471 L 151.047 97.9987 L 150.976 98.3499 L 150.905 98.7037 L 150.835 99.0614 L 150.766 99.4229 L 150.699 99.7854 L 150.637 100.144 L 150.58 100.504 L 150.525 100.871 L 150.471 101.252 L 150.474 101.234 L 150.422 101.629 L 150.373 102.033 L 150.329 102.438 L 150.289 102.844 L 150.253 103.255 L 150.221 103.674 L 150.192 104.106 L 150.168 104.545 L 150.151 104.983 L 150.138 105.418 L 150.129 105.85 L 150.122 106.276 L 150.116 106.688 L 150.108 107.075 L 150.099 107.426 L 150.087 107.741 L 150.073 108.027 L 150.059 108.294 L 150.047 108.545 L 150.039 108.784 L 150.036 109.006 L 150.035 109.216 L 150.035 109.422 L 150.036 109.628 L 150.036 109.837 L 150.036 110.049 L 150.037 110.259 L 150.036 110.467 L 150.036 110.675 L 150.036 110.887 L 150.035 111.104 L 150.036 111.324 L 150.038 111.541 L 150.043 111.755 L 150.051 111.971 L 150.061 112.19 L 150.07 112.413 L 150.078 112.639 L 150.083 112.862 L 150.087 113.081 L 150.089 113.3 L 150.092 113.524 L 150.096 113.755 L 150.102 113.993 L 150.113 114.235 L 150.13 114.481 L 150.156 114.734 L 150.189 114.995 L 150.228 115.262 L 150.271 115.533 L 150.313 115.801 L 150.353 116.067 L 150.393 116.335 L 150.43 116.609 L 150.465 116.892 L 150.498 117.181 L 150.527 117.467 L 150.552 117.751 L 150.574 118.036 L 150.594 118.324 L 150.614 118.616 L 150.634 118.908 L 150.653 119.19 L 150.67 119.461 L 150.686 119.723 L 150.702 119.979 L 150.719 120.231 L 150.734 120.478 L 150.747 120.713 L 150.76 120.939 L 150.771 121.163 L 150.78 121.39 L 150.79 121.621 L 150.8 121.851 L 150.812 122.075 L 150.824 122.293 L 150.835 122.508 L 150.844 122.722 L 150.848 122.934 L 150.85 123.139 L 150.85 123.331 L 150.85 123.509 L 150.85 123.674 L 150.85 123.829 L 150.85 123.979 L 150.851 124.128 L 150.851 124.274 L 150.851 124.417 L 150.848 124.557 L 150.84 124.698 L 150.826 124.843 L 150.808 124.993 L 150.786 125.149 L 150.766 125.31 L 150.747 125.477 L 150.729 125.654 L 150.712 125.846 L 150.695 126.057 L 150.679 126.292 L 150.665 126.556 L 150.649 126.857 L 150.63 127.202 L 150.603 127.588 L 150.564 128.001 L 150.517 128.425 L 150.516 128.435 L 150.511 128.443 L 150.505 128.45 L 150.496 128.454 L 150.487 128.456 L 150.478 128.454 L 150.469 128.45 L 150.462 128.443 L 150.458 128.435 L 150.457 128.426 L 150.496 128.001 L 150.528 127.588 L 150.548 127.202 L 150.562 126.858 L 150.573 126.556 L 150.584 126.293 L 150.596 126.057 L 150.609 125.846 L 150.623 125.654 L 150.638 125.477 L 150.655 125.31 L 150.675 125.149 L 150.696 124.993 L 150.714 124.843 L 150.728 124.698 L 150.736 124.557 L 150.739 124.417 L 150.739 124.274 L 150.739 124.128 L 150.738 123.98 L 150.738 123.83 L 150.738 123.674 L 150.738 123.509 L 150.738 123.331 L 150.738 123.139 L 150.736 122.934 L 150.732 122.722 L 150.724 122.508 L 150.713 122.293 L 150.7 122.075 L 150.688 121.851 L 150.678 121.621 L 150.669 121.39 L 150.659 121.164 L 150.648 120.94 L 150.636 120.713 L 150.622 120.478 L 150.607 120.231 L 150.591 119.979 L 150.574 119.723 L 150.558 119.462 L 150.541 119.19 L 150.522 118.908 L 150.502 118.616 L 150.482 118.324 L 150.462 118.036 L 150.44 117.751 L 150.415 117.467 L 150.386 117.181 L 150.353 116.893 L 150.318 116.61 L 150.281 116.335 L 150.242 116.067 L 150.201 115.801 L 150.159 115.534 L 150.117 115.263 L 150.077 114.995 L 150.044 114.734 L 150.019 114.481 L 150.001 114.235 L 149.991 113.993 L 149.984 113.755 L 149.98 113.524 L 149.977 113.3 L 149.975 113.081 L 149.971 112.862 L 149.966 112.64 L 149.958 112.414 L 149.949 112.19 L 149.939 111.971 L 149.931 111.755 L 149.926 111.541 L 149.924 111.324 L 149.924 111.104 L 149.924 110.887 L 149.924 110.675 L 149.925 110.467 L 149.925 110.259 L 149.925 110.049 L 149.924 109.837 L 149.924 109.628 L 149.923 109.422 L 149.923 109.217 L 149.924 109.006 L 149.927 108.784 L 149.935 108.546 L 149.947 108.294 L 149.962 108.028 L 149.975 107.741 L 149.987 107.426 L 149.997 107.075 L 150.004 106.688 L 150.01 106.276 L 150.017 105.85 L 150.026 105.418 L 150.039 104.983 L 150.057 104.545 L 150.08 104.106 L 150.109 103.674 L 150.141 103.255 L 150.178 102.844 L 150.217 102.439 L 150.261 102.033 L 150.31 101.629 L 150.362 101.234 L 150.365 101.217 L 150.419 100.837 L 150.473 100.47 L 150.531 100.11 L 150.593 99.7511 L 150.66 99.3885 L 150.729 99.027 L 150.799 98.6693 L 150.87 98.3156 L 150.94 97.9643 L 151.01 97.6127 L 151.079 97.261 L 151.145 96.9159 L 151.206 96.5808 L 151.264 96.2536 L 151.317 95.9283 L 151.365 95.5964 L 151.363 95.6136 L 151.407 95.2709 L 151.446 94.9201 L 151.481 94.5618 L 151.511 94.1943 L 151.538 93.8146 L 151.563 93.4201 L 151.589 93.0132 L 151.615 92.6057 L 151.641 92.2033 L 151.666 91.8058 L 151.687 91.4067 L 151.699 90.9961 L 151.705 90.5683 L 151.705 90.1276 L 151.703 89.6753 L 151.697 89.2096 L 151.687 88.7273 L 151.675 88.225 L 151.663 87.7044 L 151.651 87.1787 L 151.642 86.6573 L 151.637 86.1426 L 151.635 85.6316 L 151.635 85.1188 L 151.635 84.6038 L 151.636 84.0966 L 151.636 83.6006 L 151.636 83.1112 L 151.636 82.618 L 151.636 82.1081 L 151.636 81.5773 L 151.636 81.0366 L 151.636 80.495 L 151.636 79.9554 L 151.636 79.4177 L 151.636 78.8788 L 151.636 78.3394 L 151.636 77.8105 L 151.636 77.3 L 151.636 76.811 L 151.638 76.3427 L 151.641 75.8907 L 151.645 75.4517 L 151.648 75.0305 L 151.65 74.6265 L 151.651 74.2344 L 151.651 73.8455 L 151.651 73.4518 L 151.651 73.0509 L 151.65 72.6498 L 151.645 72.2514 L 151.638 71.8529 L 151.627 71.4482 L 151.613 71.0303 L 151.595 70.5975 L 151.574 70.1568 L 151.55 69.7125 L 151.525 69.2663 L 151.498 68.8169 L 151.471 68.3622 L 151.442 67.9027 L 151.413 67.448 L 151.385 67.0031 L 151.359 66.5668 L 151.333 66.1334 L 151.308 65.6946 L 151.283 65.2467 L 151.258 64.7965 L 151.232 64.348 L 151.203 63.8995 L 151.171 63.4459 L 151.136 62.9811 L 151.097 62.5033 L 151.057 62.021 L 151.016 61.54 L 150.974 61.0604 L 150.93 60.5793 L 150.886 60.0921 L 150.842 59.5979 L 150.798 59.1051 L 150.756 58.6194 L 150.714 58.1393 L 150.671 57.6574 L 150.625 57.1646 L 150.576 56.657 L 150.523 56.143 L 150.468 55.6282 L 150.41 55.1123 L 150.35 54.5889 L 150.288 54.0476 L 150.225 53.4836 L 150.166 52.9057 L 150.115 52.3214 L 150.078 51.7331 L 150.057 51.1402 L 150.048 50.5402 L 150.046 49.9348 L 150.047 49.3382 L 150.049 48.7606 L 150.052 48.2041 L 150.057 47.6645 L 150.066 47.1327 L 150.078 46.603 L 150.094 46.0801 L 150.111 45.5642 L 150.127 45.051 L 150.139 44.536 L 150.148 44.017 L 150.152 43.4985 L 150.153 42.9953 L 150.153 42.5185 L 150.153 42.071 L 150.153 41.6497 L 150.153 41.2479 L 150.153 40.8616 L 150.153 40.4941 L 150.152 40.1449 L 150.148 39.8101 L 150.14 39.4821 L 150.129 39.1546 L 150.117 38.8242 L 150.103 38.4946 L 150.087 38.1672 L 150.069 37.84 L 150.05 37.5096 L 150.031 37.1723 L 150.011 36.8292 L 149.992 36.4893 L 149.973 36.1574 L 149.956 35.8336 L 149.94 35.5146 L 149.925 35.1964 L 149.912 34.8772 L 149.898 34.5618 L 149.883 34.2539 L 149.866 33.9527 L 149.849 33.6545 L 149.832 33.3562 L 149.814 33.0591 L 149.796 32.7712 L 149.777 32.4962 L 149.758 32.2341 L 149.737 31.9834 L 149.714 31.7415 L 149.687 31.5076 L 149.657 31.2855 L 149.625 31.075 L 149.591 30.8725 L 149.558 30.6738 L 149.525 30.4749 L 149.493 30.2751 L 149.467 30.0779 L 149.45 29.8837 L 149.442 29.6907 L 149.439 29.4956 L 149.438 29.2962 L 149.438 29.0928 L 149.44 28.8898 L 149.444 28.6886 L 149.453 28.4869 L 149.47 28.2818 L 149.493 28.0703 L 149.522 27.851 L 149.524 27.8337 L 149.556 27.6113 L 149.588 27.3888 L 149.585 27.4061 L 149.616 27.1836 L 149.643 26.9573 L 149.668 26.7221 L 149.691 26.4763 L 149.709 26.2248 L 149.724 25.9682 L 149.736 25.7024 L 149.746 25.4208 L 149.752 25.1184 L 149.757 24.7949 L 149.759 24.4582 L 149.76 24.1143 L 149.76 23.766 L 149.76 23.4138 L 149.76 23.0583 L 149.76 22.7012 L 149.76 22.3501 L 149.758 22.0092 L 149.754 21.6765 L 149.748 21.3466 L 149.742 21.0134 L 149.737 20.6753 L 149.735 20.3373 L 149.734 20.0005 L 149.734 19.6621 L 149.734 19.3178 L 149.733 18.9622 L 149.733 18.5944 L 149.734 18.2234 L 149.738 17.8547 L 149.748 17.489 L 149.765 17.1263 L 149.79 16.7663 L 149.824 16.4112 L 149.864 16.0687 L 149.867 16.0515 L 149.913 15.7254 L 149.964 15.4137 L 150.016 15.1108 L 150.071 14.8119 L 150.125 14.5164 L 150.179 14.2288 L 150.233 13.9496 L 150.288 13.6756 L 150.348 13.4013 L 150.412 13.1212 L 150.48 12.8338 L 150.553 12.5435 L 150.629 12.2541 L 150.711 11.9663 L 150.796 11.6802 L 150.887 11.3954 L 150.981 11.1136 L 151.074 10.8422 L 151.164 10.586 L 151.247 10.3462 L 151.326 10.1211 L 151.4 9.90705 L 151.469 9.70155 L 151.533 9.50567 L 151.593 9.31861 L 151.649 9.13842 L 151.705 8.96404 L 151.765 8.79396 L 151.83 8.62856 L 151.899 8.47139 L 151.907 8.4558 L 151.98 8.30998 L 152.058 8.17564 L 152.141 8.05186 L 152.231 7.93912 L 152.324 7.83878 L 152.337 7.82639 L 152.431 7.73971 L 152.523 7.66681 L 152.612 7.60588 L 152.699 7.55322 L 152.782 7.50578 L 152.862 7.46212 L 152.937 7.42142 L 153.005 7.38156 L 153.067 7.33968 L 153.123 7.29331 L 153.112 7.30473 L 153.163 7.25282 L 153.211 7.19652 L 153.258 7.13827 L 153.304 7.07999 L 153.351 7.02233 L 153.4 6.96617 L 153.449 6.91185 Z" style='fill:rgba(255,255,255,1); stroke:none' />

<path d="M 54.4482 119.738 L 54.4482 119.738 L 54.4428 119.743 L 54.4359 119.747 L 54.4283 119.748 L 54.4207 119.747 L 54.4138 119.744 L 54.4084 119.738 L 54.4049 119.731 L 54.4036 119.724 L 54.4048 119.716 L 54.4083 119.709 L 54.4539 119.638 L 54.5132 119.551 L 54.5761 119.465 L 54.6259 119.393 L 54.662 119.345 L 54.7007 119.373 L 54.6552 119.358 L 54.658 119.341 L 54.7055 119.356 L 54.721 119.403 L 54.6669 119.435 L 54.6815 119.427 L 54.5918 119.503 L 54.6038 119.49 L 54.5098 119.596 L 54.4156 119.719 L 54.3314 119.848 L 54.2569 119.969 L 54.1844 120.08 L 54.1116 120.186 L 54.0455 120.286 L 53.9886 120.378 L 53.9363 120.469 L 53.9442 120.454 L 53.908 120.545 L 53.8873 120.654 L 53.864 120.78 L 53.838 120.909 L 53.8408 120.892 L 53.8202 121.041 L 53.801 121.221 L 53.7903 121.431 L 53.7814 121.669 L 53.7684 121.943 L 53.7613 122.256 L 53.7599 122.621 L 53.7606 123.049 L 53.7618 123.54 L 53.7634 124.102 L 53.7626 124.728 L 53.7512 125.382 L 53.7213 126.056 L 53.6838 126.727 L 53.653 127.398 L 53.6325 128.079 L 53.606 128.755 L 53.5717 129.374 L 53.5429 129.932 L 53.5298 130.443 L 53.5207 130.916 L 53.5072 131.365 L 53.4984 131.792 L 53.4949 132.143 L 53.4926 132.425 L 53.4891 132.648 L 53.4853 132.821 L 53.4897 132.953 L 53.4877 132.941 L 53.5165 133.045 L 53.5111 133.035 L 53.5745 133.114 L 53.567 133.106 L 53.6683 133.203 L 53.8112 133.342 L 53.8168 133.348 L 53.8204 133.355 L 53.8217 133.363 L 53.8205 133.37 L 53.8169 133.377 L 53.8113 133.383 L 53.8043 133.387 L 53.7965 133.388 L 53.7887 133.387 L 53.7817 133.383 L 53.6334 133.251 L 53.5271 133.161 L 53.5196 133.154 L 53.4502 133.079 L 53.4448 133.069 L 53.41 132.966 L 53.408 132.953 L 53.3983 132.822 L 53.3976 132.649 L 53.397 132.425 L 53.3951 132.144 L 53.3942 131.793 L 53.399 131.365 L 53.4102 130.916 L 53.4182 130.443 L 53.4311 129.933 L 53.4598 129.375 L 53.4941 128.756 L 53.5207 128.079 L 53.5412 127.399 L 53.5719 126.727 L 53.6094 126.056 L 53.6394 125.383 L 53.6508 124.728 L 53.6515 124.103 L 53.65 123.54 L 53.6487 123.049 L 53.6481 122.622 L 53.6495 122.256 L 53.6566 121.943 L 53.6696 121.669 L 53.6785 121.431 L 53.6891 121.221 L 53.7083 121.041 L 53.7289 120.892 L 53.7316 120.875 L 53.7576 120.745 L 53.7809 120.62 L 53.8016 120.511 L 53.8378 120.419 L 53.8457 120.404 L 53.898 120.313 L 53.9549 120.221 L 54.0211 120.121 L 54.0939 120.015 L 54.1664 119.903 L 54.2407 119.782 L 54.3248 119.653 L 54.4195 119.531 L 54.5155 119.426 L 54.5275 119.414 L 54.6198 119.342 L 54.6344 119.335 L 54.69 119.309 L 54.7054 119.306 L 54.7208 119.309 L 54.7348 119.316 L 54.7458 119.327 L 54.753 119.341 L 54.7555 119.356 L 54.753 119.371 L 54.7462 119.388 L 54.7394 119.401 L 54.7003 119.447 L 54.6473 119.517 L 54.5796 119.6 L 54.5105 119.679 L 54.4482 119.738 Z" style='fill:rgba(255,255,255,1); stroke:none' />

<path d="M 81.152 174.58 L 81.152 174.58 L 81.1485 174.573 L 81.1473 174.565 L 81.1485 174.558 L 81.152 174.551 L 81.1574 174.545 L 81.1642 174.542 L 81.1718 174.541 L 81.1794 174.542 L 81.1863 174.545 L 81.1917 174.551 L 81.4372 174.922 L 81.6777 175.325 L 81.6836 175.336 L 81.8903 175.795 L 82.04 176.306 L 82.0423 176.32 L 82.1164 176.845 L 82.1428 177.366 L 82.1472 177.881 L 82.1463 178.39 L 82.1462 178.895 L 82.1468 179.395 L 82.1466 179.853 L 82.1449 180.279 L 82.144 180.708 L 82.154 181.151 L 82.1904 181.609 L 82.2554 182.076 L 82.2526 182.059 L 82.3395 182.503 L 82.4412 182.925 L 82.542 183.327 L 82.6355 183.718 L 82.7355 184.129 L 82.8353 184.563 L 82.9207 184.986 L 82.9939 185.4 L 82.9967 185.417 L 83.0674 185.845 L 83.1425 186.305 L 83.2247 186.828 L 83.3154 187.411 L 83.401 188.017 L 83.4839 188.646 L 83.5732 189.316 L 83.6642 190.038 L 83.7642 190.817 L 83.8634 191.647 L 83.9497 192.473 L 84.0329 193.313 L 84.1291 194.191 L 84.2361 195.116 L 84.356 196.109 L 84.5006 197.16 L 84.6718 198.192 L 84.6692 198.176 L 84.8634 199.189 L 85.0851 200.207 L 85.3344 201.233 L 85.5999 202.263 L 85.869 203.267 L 86.1233 204.182 L 86.3683 205.071 L 86.6264 205.999 L 86.6277 206.007 L 86.6265 206.015 L 86.6229 206.022 L 86.6174 206.028 L 86.6104 206.031 L 86.6026 206.032 L 86.5949 206.031 L 86.5879 206.028 L 86.5823 206.022 L 86.5787 206.015 L 86.3118 205.089 L 86.0579 204.204 L 85.7948 203.291 L 85.5181 202.289 L 85.2473 201.262 L 84.994 200.236 L 84.769 199.22 L 84.5715 198.208 L 84.569 198.192 L 84.3947 197.16 L 84.2474 196.109 L 84.1256 195.116 L 84.0176 194.191 L 83.921 193.314 L 83.8378 192.473 L 83.7515 191.647 L 83.6524 190.817 L 83.5523 190.038 L 83.4613 189.316 L 83.3721 188.646 L 83.2892 188.017 L 83.2036 187.411 L 83.1129 186.828 L 83.0307 186.305 L 82.9556 185.845 L 82.8848 185.417 L 82.8876 185.435 L 82.8144 185.02 L 82.729 184.598 L 82.6293 184.164 L 82.5292 183.752 L 82.4357 183.362 L 82.3349 182.96 L 82.2332 182.537 L 82.1463 182.094 L 82.1436 182.077 L 82.0786 181.609 L 82.0421 181.151 L 82.0321 180.709 L 82.0331 180.279 L 82.0351 179.853 L 82.0363 179.395 L 82.0376 178.895 L 82.0404 178.39 L 82.0444 177.881 L 82.0435 177.367 L 82.0208 176.845 L 81.9504 176.32 L 81.9526 176.334 L 81.8066 175.822 L 81.6055 175.362 L 81.6114 175.373 L 81.3806 174.963 L 81.152 174.58 Z" style='fill:rgba(255,255,255,1); stroke:none' />

<path d="M 107.975 240.368 L 107.975 240.368 L 107.971 240.361 L 107.97 240.354 L 107.971 240.346 L 107.975 240.339 L 107.98 240.334 L 107.987 240.33 L 107.994 240.329 L 108.002 240.33 L 108.009 240.334 L 108.014 240.339 L 108.378 240.743 L 108.695 241.189 L 108.701 241.2 L 108.938 241.735 L 109.106 242.387 L 109.108 242.402 L 109.222 243.136 L 109.277 243.886 L 109.291 244.634 L 109.288 245.388 L 109.259 246.147 L 109.187 246.92 L 109.097 247.679 L 109.001 248.379 L 108.916 249.041 L 108.849 249.696 L 108.801 250.362 L 108.764 251.05 L 108.741 251.745 L 108.734 252.39 L 108.734 253.01 L 108.735 253.627 L 108.735 254.255 L 108.736 254.914 L 108.735 255.605 L 108.735 256.276 L 108.734 256.951 L 108.733 257.661 L 108.742 258.41 L 108.766 259.22 L 108.804 260.09 L 108.843 260.94 L 108.879 261.764 L 108.906 262.581 L 108.917 263.381 L 108.922 264.167 L 108.923 264.907 L 108.905 265.523 L 108.902 265.54 L 108.83 266.04 L 108.694 266.467 L 108.51 266.845 L 108.503 266.86 L 108.283 267.208 L 108.034 267.516 L 108.023 267.527 L 107.739 267.745 L 107.726 267.751 L 107.375 267.886 L 107.362 267.888 L 106.922 267.951 L 106.352 267.966 L 105.596 267.988 L 104.665 268.048 L 104.655 268.046 L 104.647 268.042 L 104.64 268.035 L 104.636 268.027 L 104.635 268.018 L 104.636 268.009 L 104.64 268 L 104.647 267.994 L 104.655 267.989 L 104.665 267.988 L 105.596 267.92 L 106.352 267.891 L 106.922 267.869 L 107.362 267.801 L 107.348 267.803 L 107.698 267.664 L 107.685 267.671 L 107.967 267.45 L 107.956 267.46 L 108.202 267.15 L 108.419 266.799 L 108.412 266.814 L 108.593 266.434 L 108.727 266.006 L 108.797 265.506 L 108.794 265.523 L 108.812 264.907 L 108.81 264.167 L 108.806 263.381 L 108.794 262.581 L 108.767 261.764 L 108.732 260.94 L 108.692 260.09 L 108.655 259.221 L 108.63 258.41 L 108.622 257.661 L 108.622 256.951 L 108.623 256.276 L 108.624 255.605 L 108.624 254.914 L 108.624 254.256 L 108.623 253.627 L 108.622 253.01 L 108.622 252.39 L 108.629 251.745 L 108.653 251.05 L 108.689 250.362 L 108.737 249.696 L 108.804 249.041 L 108.889 248.379 L 108.986 247.679 L 109.076 246.92 L 109.15 246.147 L 109.182 245.388 L 109.189 244.635 L 109.177 243.886 L 109.126 243.136 L 109.016 242.402 L 109.018 242.416 L 108.855 241.763 L 108.623 241.226 L 108.628 241.237 L 108.322 240.784 L 107.975 240.368 Z" style='fill:rgba(255,255,255,1); stroke:none' />

<path d="M -108.824 277.866 L -108.824 277.866 L -108.828 277.872 L -108.833 277.878 L -108.84 277.881 L -108.847 277.882 L -108.854 277.881 L -108.861 277.878 L -108.866 277.872 L -108.87 277.866 L -108.871 277.858 L -108.87 277.851 L -108.574 276.737 L -108.576 276.748 L -108.473 275.785 L -108.472 274.883 L -108.482 273.926 L -108.511 272.879 L -108.595 271.677 L -108.676 270.313 L -108.713 268.906 L -108.72 267.415 L -108.722 265.783 L -108.718 263.953 L -108.669 261.886 L -108.528 259.612 L -108.325 257.326 L -108.115 254.947 L -107.887 252.381 L -107.649 249.591 L -107.454 246.527 L -107.293 243.199 L -107.291 243.19 L -107.287 243.181 L -107.28 243.174 L -107.271 243.169 L -107.261 243.167 L -107.251 243.169 L -107.242 243.174 L -107.235 243.181 L -107.23 243.189 L -107.229 243.199 L -107.38 246.527 L -107.567 249.591 L -107.8 252.381 L -108.023 254.947 L -108.229 257.326 L -108.428 259.612 L -108.566 261.886 L -108.612 263.953 L -108.613 265.783 L -108.612 267.415 L -108.607 268.906 L -108.573 270.313 L -108.496 271.677 L -108.416 272.879 L -108.39 273.925 L -108.384 274.883 L -108.39 275.784 L -108.504 276.748 L -108.506 276.759 L -108.824 277.866 Z" style='fill:rgba(255,255,255,1); stroke:none' />

<path d="M -173.021 -51.1508 L -173.021 -51.1508 L -173.015 -51.1455 L -173.012 -51.1387 L -173.011 -51.1312 L -173.012 -51.1237 L -173.015 -51.1169 L -173.021 -51.1116 L -173.027 -51.1081 L -173.035 -51.1069 L -173.042 -51.1081 L -173.049 -51.1115 L -173.345 -51.313 L -173.657 -51.5037 L -173.645 -51.4979 L -174.02 -51.6805 L -174.487 -51.8537 L -175.033 -52.0011 L -175.645 -52.1201 L -176.3 -52.2121 L -176.284 -52.2096 L -176.928 -52.2612 L -177.564 -52.2737 L -178.204 -52.2115 L -178.187 -52.2142 L -178.826 -51.9942 L -178.811 -52.0021 L -179.465 -51.6383 L -180.135 -51.1755 L -180.757 -50.6396 L -180.744 -50.652 L -181.324 -50.0189 L -181.889 -49.2772 L -182.47 -48.4479 L -183.076 -47.5073 L -183.684 -46.4504 L -183.676 -46.466 L -184.22 -45.3467 L -184.716 -44.171 L -185.206 -42.9129 L -185.704 -41.5266 L -186.221 -39.971 L -186.729 -38.2304 L -187.183 -36.3713 L -187.611 -34.338 L -188.022 -32.081 L -188.406 -29.616 L -188.403 -29.6308 L -188.729 -26.9817 L -188.991 -24.2379 L -189.154 -21.6411 L -189.238 -19.1673 L -189.308 -16.7641 L -189.412 -14.3817 L -189.414 -14.3724 L -189.418 -14.3641 L -189.425 -14.3574 L -189.433 -14.3532 L -189.442 -14.3517 L -189.452 -14.3531 L -189.46 -14.3574 L -189.467 -14.364 L -189.471 -14.3723 L -189.472 -14.3816 L -189.376 -16.764 L -189.314 -19.1672 L -189.236 -21.641 L -189.078 -24.2377 L -188.821 -26.9816 L -188.499 -29.6306 L -188.497 -29.6454 L -188.116 -32.1115 L -187.709 -34.3696 L -187.284 -36.4038 L -186.832 -38.2638 L -186.326 -40.0049 L -185.81 -41.5608 L -185.313 -42.9473 L -184.822 -44.2054 L -184.326 -45.3811 L -183.782 -46.5004 L -183.774 -46.516 L -183.167 -47.5729 L -182.561 -48.5134 L -181.979 -49.3427 L -181.415 -50.0844 L -180.835 -50.7176 L -180.823 -50.73 L -180.201 -51.2659 L -179.531 -51.7286 L -178.876 -52.0922 L -178.861 -52.1001 L -178.221 -52.3193 L -178.204 -52.322 L -177.564 -52.3824 L -176.928 -52.3671 L -176.284 -52.3124 L -176.268 -52.3099 L -175.614 -52.2145 L -175.004 -52.092 L -174.458 -51.941 L -173.993 -51.7641 L -173.981 -51.7579 L -173.608 -51.5705 L -173.304 -51.3702 L -173.021 -51.1508 Z" style='fill:rgba(255,255,255,1); stroke:none' />

<path d="M 365.844 77.1355 L 365.844 77.1355 L 365.84 77.1287 L 365.839 77.1211 L 365.84 77.1136 L 365.844 77.1068 L 365.849 77.1013 L 365.856 77.0979 L 365.863 77.0967 L 365.871 77.0978 L 365.878 77.1013 L 365.883 77.1067 L 366.326 77.8044 L 366.331 77.8141 L 366.639 78.4071 L 366.777 78.802 L 366.779 78.8155 L 366.807 79.0164 L 366.798 79.1236 L 366.796 79.1384 L 366.769 79.2357 L 366.715 79.3589 L 366.66 79.5224 L 366.663 79.506 L 366.64 79.6972 L 366.639 79.922 L 366.652 80.1897 L 366.684 80.4931 L 366.732 80.7965 L 366.729 80.7792 L 366.786 81.0759 L 366.789 81.0932 L 366.835 81.394 L 366.865 81.7169 L 366.877 82.0709 L 366.861 82.4607 L 366.858 82.4779 L 366.778 82.8864 L 366.609 83.3509 L 366.369 83.8999 L 366.087 84.5651 L 365.761 85.3984 L 365.401 86.4463 L 365.029 87.7238 L 364.657 89.314 L 364.288 91.3228 L 364.29 91.3056 L 363.937 93.8245 L 363.638 96.9343 L 363.424 100.632 L 363.309 104.776 L 363.272 109.378 L 363.299 114.448 L 363.45 119.921 L 363.791 125.725 L 364.292 131.657 L 364.884 137.343 L 365.569 142.9 L 366.341 148.406 L 367.189 153.81 L 368.099 159.054 L 368.098 159.042 L 369.042 164.043 L 369.997 168.701 L 369.999 168.71 L 369.997 168.719 L 369.993 168.728 L 369.986 168.734 L 369.978 168.739 L 369.969 168.74 L 369.959 168.739 L 369.951 168.734 L 369.944 168.728 L 369.94 168.719 L 368.977 164.064 L 368.026 159.065 L 368.024 159.054 L 367.107 153.81 L 366.254 148.406 L 365.477 142.9 L 364.788 137.343 L 364.192 131.657 L 363.689 125.725 L 363.344 119.921 L 363.19 114.448 L 363.162 109.378 L 363.197 104.776 L 363.313 100.633 L 363.526 96.9345 L 363.825 93.8247 L 364.179 91.3057 L 364.181 91.2885 L 364.55 89.2796 L 364.923 87.6894 L 365.295 86.412 L 365.655 85.364 L 365.981 84.5307 L 366.263 83.8656 L 366.502 83.3165 L 366.671 82.8521 L 366.752 82.4436 L 366.749 82.4608 L 366.765 82.0711 L 366.754 81.7171 L 366.723 81.3941 L 366.677 81.0934 L 366.68 81.1107 L 366.623 80.8139 L 366.62 80.7967 L 366.572 80.4932 L 366.54 80.1899 L 366.528 79.9222 L 366.531 79.6974 L 366.557 79.5062 L 366.559 79.4899 L 366.617 79.3273 L 366.675 79.2052 L 366.705 79.109 L 366.702 79.1238 L 366.715 79.0165 L 366.691 78.8157 L 366.693 78.8293 L 366.561 78.4326 L 366.265 77.836 L 366.27 77.8457 L 365.844 77.1355 Z" style='fill:rgba(255,255,255,1); stroke:none' />

<path d="M 382.017 214.774 L 382.017 214.774 L 382.018 214.767 L 382.022 214.76 L 382.027 214.754 L 382.034 214.751 L 382.041 214.75 L 382.049 214.751 L 382.056 214.754 L 382.061 214.76 L 382.065 214.766 L 382.066 214.774 L 382.178 215.566 L 382.285 216.486 L 382.352 217.576 L 382.386 218.757 L 382.397 219.839 L 382.399 220.767 L 382.389 221.52 L 382.351 222.064 L 382.349 222.08 L 382.285 222.422 L 382.218 222.617 L 382.21 222.633 L 382.164 222.687 L 382.151 222.699 L 382.136 222.707 L 382.119 222.71 L 382.101 222.707 L 382.086 222.699 L 382.058 222.675 L 382.045 222.663 L 382.037 222.647 L 382.035 222.63 L 382.026 222.55 L 382.027 222.437 L 382.028 222.341 L 382.029 222.263 L 382.029 222.189 L 382.029 222.118 L 382.028 222.071 L 382.084 222.071 L 382.14 222.071 L 382.138 222.088 L 382.137 222.225 L 382.145 222.439 L 382.181 222.685 L 382.179 222.668 L 382.249 222.938 L 382.349 223.206 L 382.467 223.464 L 382.459 223.45 L 382.598 223.7 L 382.751 223.934 L 382.931 224.158 L 382.921 224.148 L 383.14 224.35 L 383.402 224.504 L 383.391 224.498 L 383.69 224.623 L 384.011 224.772 L 384.02 224.777 L 384.396 224.999 L 384.835 225.31 L 384.84 225.316 L 384.844 225.323 L 384.845 225.331 L 384.844 225.338 L 384.84 225.345 L 384.835 225.351 L 384.828 225.355 L 384.82 225.356 L 384.812 225.355 L 384.805 225.351 L 384.361 225.047 L 383.98 224.832 L 383.99 224.837 L 383.667 224.695 L 383.366 224.576 L 383.354 224.57 L 383.089 224.42 L 382.867 224.222 L 382.857 224.212 L 382.674 223.99 L 382.517 223.758 L 382.376 223.511 L 382.369 223.496 L 382.248 223.238 L 382.146 222.972 L 382.073 222.702 L 382.071 222.685 L 382.033 222.439 L 382.025 222.225 L 382.027 222.088 L 382.028 222.071 L 382.031 222.054 L 382.039 222.038 L 382.051 222.026 L 382.067 222.018 L 382.084 222.015 L 382.101 222.018 L 382.117 222.025 L 382.129 222.038 L 382.137 222.053 L 382.14 222.071 L 382.141 222.118 L 382.141 222.189 L 382.14 222.263 L 382.14 222.341 L 382.139 222.437 L 382.138 222.55 L 382.147 222.63 L 382.123 222.585 L 382.151 222.609 L 382.119 222.654 L 382.074 222.622 L 382.12 222.568 L 382.112 222.583 L 382.181 222.389 L 382.248 222.047 L 382.245 222.064 L 382.286 221.52 L 382.299 220.768 L 382.301 219.84 L 382.294 218.757 L 382.264 217.577 L 382.203 216.486 L 382.107 215.566 L 382.017 214.774 Z" style='fill:rgba(255,255,255,1); stroke:none' />



</svg>